<svg width="25" height="21" viewBox="0 0 25 21" fill="none" xmlns="http://www.w3.org/2000/svg">
<path d="M21.875 6.10352e-05H3.12503C2.2965 0.00100827 1.50216 0.353193 0.916301 0.979338C0.330442 1.60548 0.000916804 2.45445 3.05176e-05 3.33995V17.6538C0.000916804 18.5393 0.330442 19.3882 0.916301 20.0144C1.50216 20.6405 2.2965 20.9927 3.12503 20.9937H21.875C22.7036 20.9927 23.4979 20.6405 24.0838 20.0144C24.6696 19.3882 24.9991 18.5393 25 17.6538V3.33995C24.9991 2.45445 24.6696 1.60548 24.0838 0.979338C23.4979 0.353193 22.7036 0.00100827 21.875 6.10352e-05ZM21.0837 5.5246L13.048 12.2044C12.8913 12.3346 12.6985 12.4052 12.5 12.4052C12.3016 12.4052 12.1087 12.3346 11.952 12.2044L3.91633 5.5246C3.82191 5.4484 3.74261 5.3529 3.68303 5.24366C3.62345 5.13442 3.58477 5.01362 3.56925 4.88826C3.55374 4.76291 3.56168 4.63551 3.59263 4.51347C3.62358 4.39143 3.67691 4.27718 3.74953 4.17736C3.82215 4.07754 3.9126 3.99413 4.01564 3.932C4.11868 3.86986 4.23225 3.83023 4.34974 3.81541C4.46724 3.80059 4.58631 3.81087 4.70006 3.84566C4.8138 3.88045 4.91994 3.93906 5.01231 4.01807L12.5 10.2422L19.9878 4.01807C20.175 3.86695 20.4104 3.80067 20.6429 3.83357C20.8755 3.86646 21.0867 3.99588 21.2307 4.19384C21.3747 4.3918 21.44 4.6424 21.4125 4.89143C21.385 5.14045 21.2669 5.36791 21.0837 5.5246Z" fill="#E1E1E8"/>
</svg>
