<svg width="25" height="32" viewBox="0 0 25 32" fill="none" xmlns="http://www.w3.org/2000/svg">
<path d="M20.0321 31.078C18.9426 31.078 17.4121 30.5882 15.1204 28.9968C12.3335 27.0544 10.178 25.2612 7.40619 21.8252C4.73377 18.5057 3.43328 16.3566 1.61315 12.2401C-0.44307 7.59216 -0.0925525 5.15582 0.299269 4.11455C0.765882 2.87002 1.45464 2.12566 2.34489 1.38685C2.85054 0.975087 3.38565 0.622111 3.94343 0.332402C3.99924 0.302572 4.05115 0.27413 4.09748 0.248462C4.37376 0.0937631 4.79237 -0.14002 5.32262 0.109719C5.67648 0.274824 5.9924 0.612664 6.48692 1.21967C7.50108 2.46281 8.88696 5.23144 9.39823 6.59113C9.74149 7.50753 9.96866 8.11245 9.96921 8.79091C9.96921 9.58522 9.64772 10.1978 9.25757 10.8589C9.18446 10.9831 9.1119 11.1017 9.04157 11.2168C8.61682 11.9106 8.52361 12.111 8.585 12.469C8.70947 13.1884 9.63767 15.3299 11.1631 17.2217C12.6885 19.1134 14.3619 20.1942 14.9429 20.3483C15.2432 20.428 15.4078 20.3073 15.9838 19.7607C16.0664 19.6823 16.1513 19.6011 16.24 19.52C16.835 18.9698 17.305 18.5807 17.929 18.5807H17.9323C18.4754 18.5807 18.9404 18.8734 19.7106 19.3562C20.7153 19.9861 23.0098 21.6864 24.0162 22.9483C24.5057 23.5616 24.7786 23.9528 24.912 24.3919C25.1129 25.053 24.9237 25.5713 24.8004 25.9181C24.7797 25.9757 24.7568 26.0388 24.7328 26.1089C24.4979 26.8009 24.2122 27.4646 23.8794 28.0915C23.2861 29.1945 22.685 30.0485 21.6814 30.6292C21.1661 30.9321 20.6021 31.0856 20.0321 31.078Z" fill="#E1E1E8"/>
</svg>
